:SAMPLES-PER-SECOND 30
:FULLY-SPECIFIED
:DEGREES
191
root  4.60307 39.4369 -22.5149 -168.575 5.26044 176.511
RightUpLeg  -22.8915 -2.0061 3.89323
RightLeg  22.0054 7.64901 -4.64916
RightFoot  -9.18769 0.244748 -6.22025
RightToes  3.97569e-016 -3.18055e-015 -2.98177e-016
Spine  21.4055 -1.06077 0.569991
Spine1  1.89108 -1.05258 -0.379008
HEad  -12.3399 5.50877 -6.22775
LeftShoulder1  -3.88251e-019 9.70628e-020 -3.87848e-018
LeftArm  0.278432 26.4938 -62.5109
LeftForeArm  -13.7785 -38.2971 8.23908
LeftHand  -1.51013 -8.43093 13.2838
RightShoulder  7.54738 10.6096 35.4537
RightArm  26.4151 -39.7525 14.7921
RightForeArm  -21.1455 34.748 -18.0068
RightHand  -2.40567 5.84627 -24.324
LeftUpLeg  -21.2384 -6.63229 -3.82687
LeftLeg  16.2902 -1.4983 5.03059
LeftFoot  -3.75315 -0.207647 2.39022
LeftToes  4.86531e-011 4.41684e-011 -2.86034e-011
192
root  4.77174 39.6158 -23.2446 -170.264 5.11951 176.21
RightUpLeg  -19.1495 -2.03514 3.48007
RightLeg  20.699 7.34254 -4.55359
RightFoot  -9.66903 0.208509 -5.84236
RightToes  3.97569e-016 -3.18055e-015 -2.98177e-016
Spine  19.6761 -1.43236 -0.595811
Spine1  1.93444 -1.61446 -0.0674286
HEad  -10.5498 6.51383 -6.53531
LeftShoulder1  -3.88251e-019 9.70628e-020 -3.87848e-018
LeftArm  0.639128 29.1244 -62.7347
LeftForeArm  -13.1323 -35.5912 7.41968
LeftHand  -1.374 -8.04204 12.4701
RightShoulder  7.73857 10.6776 36.2606
RightArm  30.2487 -43.0995 10.9882
RightForeArm  -17.7163 31.1273 -15.9731
RightHand  -1.68215 4.66376 -19.1546
LeftUpLeg  -16.7571 -5.90657 -4.37855
LeftLeg  13.5575 -2.10837 4.29088
LeftFoot  -3.7914 -0.216153 2.4706
LeftToes  4.86531e-011 4.41684e-011 -2.86034e-011
193
root  4.95304 39.7525 -24.0356 -172.045 5.08238 175.89
RightUpLeg  -15.4511 -2.18774 3.01618
RightLeg  19.8447 7.43141 -4.3647
RightFoot  -10.1522 0.174274 -5.42835
RightToes  3.97569e-016 -3.18055e-015 -2.98177e-016
Spine  17.4933 -1.77407 -1.80853
Spine1  2.1097 -2.16763 0.321747
HEad  -7.70686 7.65556 -6.75433
LeftShoulder1  -3.88251e-019 9.70628e-020 -3.87848e-018
LeftArm  0.530286 32.2098 -63.1007
LeftForeArm  -12.8131 -32.4933 6.54065
LeftHand  -1.18811 -7.73546 11.0803
RightShoulder  7.86755 10.7176 36.8119
RightArm  33.1646 -46.1223 7.3848
RightForeArm  -9.4513 26.2678 -13.7365
RightHand  -1.24007 4.40257 -14.6228
LeftUpLeg  -12.501 -4.88768 -4.78809
LeftLeg  11.6044 -3.01726 3.55867
LeftFoot  -3.66187 -0.199894 2.28705
LeftToes  4.86531e-011 4.41684e-011 -2.86034e-011
194
root  5.12025 39.8292 -24.8129 -173.659 5.10217 175.863
RightUpLeg  -12.2266 -2.38023 2.83825
RightLeg  19.6112 7.75416 -4.19265
RightFoot  -10.5215 0.148577 -5.0237
RightToes  3.97569e-016 -3.18055e-015 -2.98177e-016
Spine  15.1678 -2.08849 -2.4734
Spine1  2.21132 -2.60896 0.790441
HEad  -4.50411 8.65222 -6.84612
LeftShoulder1  -3.88251e-019 9.70628e-020 -3.87848e-018
LeftArm  -0.0353324 35.5901 -63.5089
LeftForeArm  -12.3746 -29.7217 5.75925
LeftHand  -0.980422 -7.20077 9.58853
RightShoulder  7.95461 10.7299 37.2147
RightArm  32.2996 -48.506 3.98786
RightForeArm  3.56485 20.9069 -10.52
RightHand  -1.08274 5.14006 -11.8936
LeftUpLeg  -9.20692 -4.00751 -4.7387
LeftLeg  11.1506 -3.75579 3.15504
LeftFoot  -3.94002 -0.156038 1.81424
LeftToes  4.86531e-011 4.41684e-011 -2.86034e-011
195
root  5.26495 39.8175 -25.5132 -174.986 4.98361 176.333
RightUpLeg  -9.70793 -2.69516 3.20022
RightLeg  20.0662 8.0989 -4.12656
RightFoot  -11.108 0.115681 -4.51042
RightToes  3.97569e-016 -3.18055e-015 -2.98177e-016
Spine  13.2394 -2.42568 -2.42558
Spine1  2.02929 -3.00039 1.52688
HEad  -1.76852 9.40651 -6.89306
LeftShoulder1  -3.88251e-019 9.70628e-020 -3.87848e-018
LeftArm  -1.37761 39.1606 -63.8455
LeftForeArm  -11.2216 -27.8865 4.95182
LeftHand  -0.827136 -6.52561 8.59652
RightShoulder  8.01669 10.7288 37.5232
RightArm  22.7245 -50.0683 0.589409
RightForeArm  21.5716 16.166 -5.35038
RightHand  -1.01705 5.54647 -10.7724
LeftUpLeg  -7.32635 -3.49568 -4.17184
LeftLeg  12.6376 -4.26289 3.35875
LeftFoot  -5.16598 -0.0804228 0.948386
LeftToes  4.86531e-011 4.41684e-011 -2.86034e-011
196
root  5.39668 39.7161 -26.1212 -176.255 4.74242 177.061
RightUpLeg  -7.66501 -3.15259 3.83137
RightLeg  21.1265 8.4672 -4.13821
RightFoot  -12.0397 0.0758009 -3.88777
RightToes  3.97569e-016 -3.18055e-015 -2.98177e-016
Spine  11.9398 -2.69936 -2.14092
Spine1  1.90583 -3.34798 2.66227
HEad  -0.165624 9.88161 -7.01004
LeftShoulder1  -3.88251e-019 9.70628e-020 -3.87848e-018
LeftArm  -3.39417 42.6811 -64.2582
LeftForeArm  -9.62807 -26.9565 4.15534
LeftHand  -0.78445 -6.1353 8.43647
RightShoulder  8.04827 10.724 37.6894
RightArm  16.4566 -51.2142 -1.9912
RightForeArm  28.1729 10.9504 -3.77617
RightHand  -0.864581 4.69556 -9.91869
LeftUpLeg  -6.62574 -3.72525 -3.35762
LeftLeg  15.9943 -4.21029 4.0703
LeftFoot  -6.65671 -0.0213818 0.0718927
LeftToes  4.86531e-011 4.41684e-011 -2.86034e-011
197
root  5.52143 39.5529 -26.6508 -177.584 4.6337 177.675
RightUpLeg  -5.88134 -3.64365 4.30533
RightLeg  22.5753 8.95816 -4.13642
RightFoot  -13.1608 0.0412285 -3.42334
RightToes  3.97569e-016 -3.18055e-015 -2.98177e-016
Spine  10.8951 -2.76726 -1.84822
Spine1  2.44395 -3.45922 3.7784
HEad  0.00769799 9.87075 -7.17163
LeftShoulder1  -3.88251e-019 9.70628e-020 -3.87848e-018
LeftArm  -4.99291 45.7692 -64.8781
LeftForeArm  -8.86509 -26.4828 3.69272
LeftHand  -0.840369 -6.18994 8.97089
RightShoulder  8.0657 10.724 37.775
RightArm  14.446 -52.0904 -3.5821
RightForeArm  24.1245 6.67924 -4.3083
RightHand  -0.642264 3.01013 -8.8133
LeftUpLeg  -6.76806 -4.05087 -2.66683
LeftLeg  20.8153 -4.03269 5.01598
LeftFoot  -7.57739 0.00987608 -0.633089
LeftToes  4.86531e-011 4.41684e-011 -2.86034e-011
198
root  5.63309 39.3407 -27.1208 -178.64 4.73152 178.165
RightUpLeg  -4.56893 -4.14882 4.64602
RightLeg  24.1945 9.51569 -4.10007
RightFoot  -14.4911 0.00726178 -3.32305
RightToes  3.97569e-016 -3.18055e-015 -2.98177e-016
Spine  9.62452 -2.66613 -1.09493
Spine1  3.63387 -3.21752 4.25148
HEad  -0.925166 9.19105 -7.3162
LeftShoulder1  -3.88251e-019 9.70628e-020 -3.87848e-018
LeftArm  -5.90719 48.3327 -65.4475
LeftForeArm  -8.7195 -26.2337 3.42325
LeftHand  -0.922538 -6.43145 9.62324
RightShoulder  8.11179 10.7461 37.9509
RightArm  12.7818 -52.8074 -4.57886
RightForeArm  18.5075 3.97331 -4.78319
RightHand  -0.46903 1.41717 -7.88882
LeftUpLeg  -7.99222 -3.75148 -2.02391
LeftLeg  26.8799 -4.52606 5.98818
LeftFoot  -8.00922 0.0756145 -2.22845
LeftToes  4.86531e-011 4.41684e-011 -2.86034e-011
